<svg width="40" height="41" viewBox="0 0 40 41" fill="none" xmlns="http://www.w3.org/2000/svg">
<path d="M32 2.9837C30.4087 2.9837 28.8826 3.61412 27.7574 4.73628C26.6321 5.85844 26 7.38042 26 8.96739V32.9022C26 34.4891 26.6321 36.0111 27.7574 37.1333C28.8826 38.2554 30.4087 38.8859 32 38.8859C33.5913 38.8859 35.1174 38.2554 36.2426 37.1333C37.3679 36.0111 38 34.4891 38 32.9022C38 31.3152 37.3679 29.7932 36.2426 28.6711C35.1174 27.5489 33.5913 26.9185 32 26.9185H8C6.4087 26.9185 4.88258 27.5489 3.75736 28.6711C2.63214 29.7932 2 31.3152 2 32.9022C2 34.4891 2.63214 36.0111 3.75736 37.1333C4.88258 38.2554 6.4087 38.8859 8 38.8859C9.5913 38.8859 11.1174 38.2554 12.2426 37.1333C13.3679 36.0111 14 34.4891 14 32.9022V8.96739C14 7.38042 13.3679 5.85844 12.2426 4.73628C11.1174 3.61412 9.5913 2.9837 8 2.9837C6.4087 2.9837 4.88258 3.61412 3.75736 4.73628C2.63214 5.85844 2 7.38042 2 8.96739C2 10.5544 2.63214 12.0763 3.75736 13.1985C4.88258 14.3207 6.4087 14.9511 8 14.9511H32C33.5913 14.9511 35.1174 14.3207 36.2426 13.1985C37.3679 12.0763 38 10.5544 38 8.96739C38 7.38042 37.3679 5.85844 36.2426 4.73628C35.1174 3.61412 33.5913 2.9837 32 2.9837Z" stroke="#1E1E1E" stroke-width="4" stroke-linecap="round" stroke-linejoin="round"/>
</svg>
