<svg width="40" height="45" viewBox="0 0 40 45" fill="none" xmlns="http://www.w3.org/2000/svg">
<path d="M2.54 11.8822L20 21.9547L37.46 11.8822M20 42.04V21.9348M38 29.913V13.9565C37.9993 13.257 37.8141 12.5699 37.4631 11.9643C37.112 11.3586 36.6075 10.8557 36 10.5059L22 2.52766C21.3919 2.17754 20.7021 1.99322 20 1.99322C19.2979 1.99322 18.6081 2.17754 18 2.52766L4 10.5059C3.39253 10.8557 2.88796 11.3586 2.53692 11.9643C2.18589 12.5699 2.00072 13.257 2 13.9565V29.913C2.00072 30.6126 2.18589 31.2996 2.53692 31.9053C2.88796 32.5109 3.39253 33.0139 4 33.3636L18 41.3419C18.6081 41.692 19.2979 41.8763 20 41.8763C20.7021 41.8763 21.3919 41.692 22 41.3419L36 33.3636C36.6075 33.0139 37.112 32.5109 37.4631 31.9053C37.8141 31.2996 37.9993 30.6126 38 29.913Z" stroke="#1E1E1E" stroke-width="4" stroke-linecap="round" stroke-linejoin="round"/>
</svg>
