<svg width="8" height="24" viewBox="0 0 8 24" fill="none" xmlns="http://www.w3.org/2000/svg">
<path d="M4 13.25C4.69036 13.25 5.25 12.6904 5.25 12C5.25 11.3096 4.69036 10.75 4 10.75C3.30964 10.75 2.75 11.3096 2.75 12C2.75 12.6904 3.30964 13.25 4 13.25Z" stroke="#1E1E1E" stroke-width="4" stroke-linecap="round" stroke-linejoin="round"/>
<path d="M4 4.5C4.69036 4.5 5.25 3.94036 5.25 3.25C5.25 2.55964 4.69036 2 4 2C3.30964 2 2.75 2.55964 2.75 3.25C2.75 3.94036 3.30964 4.5 4 4.5Z" stroke="#1E1E1E" stroke-width="4" stroke-linecap="round" stroke-linejoin="round"/>
<path d="M4 22C4.69036 22 5.25 21.4404 5.25 20.75C5.25 20.0596 4.69036 19.5 4 19.5C3.30964 19.5 2.75 20.0596 2.75 20.75C2.75 21.4404 3.30964 22 4 22Z" stroke="#1E1E1E" stroke-width="4" stroke-linecap="round" stroke-linejoin="round"/>
</svg>
