<svg width="25" height="25" viewBox="0 0 25 25" fill="none" xmlns="http://www.w3.org/2000/svg">
    <g clip-path="url(#clip0_146_1029)">
        <path
            d="M7.29166 11.4583L11.4583 2.08325C12.2871 2.08325 13.082 2.41249 13.668 2.99854C14.2541 3.58459 14.5833 4.37945 14.5833 5.20825V9.37492H20.4792C20.7811 9.3715 21.0803 9.43378 21.3558 9.55744C21.6313 9.6811 21.8767 9.86318 22.0748 10.0911C22.273 10.319 22.4193 10.5872 22.5035 10.8773C22.5877 11.1673 22.6078 11.4722 22.5625 11.7708L21.125 21.1458C21.0497 21.6425 20.7973 22.0953 20.4145 22.4208C20.0316 22.7462 19.5441 22.9223 19.0417 22.9166H7.29166M7.29166 11.4583V22.9166M7.29166 11.4583H4.16666C3.61413 11.4583 3.08422 11.6777 2.69352 12.0684C2.30282 12.4591 2.08333 12.9891 2.08333 13.5416V20.8333C2.08333 21.3858 2.30282 21.9157 2.69352 22.3064C3.08422 22.6971 3.61413 22.9166 4.16666 22.9166H7.29166"
            stroke="yellow
            " stroke-width="4" stroke-linecap="round" stroke-linejoin="round" />
    </g>
    <defs>
        <clipPath id="clip0_146_1029">
            <rect width="25" height="25" fill="white" />
        </clipPath>
    </defs>
</svg>